<?xml version="1.0" encoding="utf-8"?>
<!-- Generator: Adobe Illustrator 27.1.1, SVG Export Plug-In . SVG Version: 6.00 Build 0)  -->
<svg version="1.1" id="Layer_1" xmlns="http://www.w3.org/2000/svg" xmlns:xlink="http://www.w3.org/1999/xlink" x="0px" y="0px"
	 viewBox="0 0 595.28 226.76" style="enable-background:new 0 0 595.28 226.76;" xml:space="preserve">
<style type="text/css">
	.st0{fill:#F2F2F3;}
</style>
<text transform="matrix(0.9045 0 0 1 -506.4871 158.5176)" style="font-family:'Goldman-Bold'; font-size:66.8344px;">yes</text>
<text transform="matrix(0.9045 0 0 1 -477.1531 171.3818)" style="font-family:'Goldman-Bold'; font-size:13.4423px;">we’re genius</text>
<g>
	<g>
		<path class="st0" d="M49.1,216.27c-11.12,0-21.21-1.18-30.31-3.52S3.44,208.11,0,205.88l12.12-41.22
			c6.06,2.9,12.58,5.14,19.55,6.7c6.97,1.56,13.59,2.35,19.85,2.35h3.33c17.58,0,30.31-7.71,38.19-23.12H74.56L15.15,0.46h60.92
			l26.07,89.14l4.55,20.44h3.03l4.55-20.44l26.37-89.14h60.01L195.8,20.9c-3.84,8.72-8.24,18.71-13.18,30
			c-4.96,11.28-10.06,22.96-15.31,35.02c-5.26,12.07-10.36,23.68-15.31,34.85c-4.95,11.17-9.35,21.11-13.18,29.83
			c-9.9,22.34-21.32,38.87-34.25,49.6c-12.93,10.72-28.7,16.09-47.28,16.09H49.1z"/>
		<path class="st0" d="M268.24,150.59c-13.34,0-23.59-2.12-30.76-6.37c-7.18-4.25-12.08-10.11-14.7-17.59
			c-2.63-7.48-3.94-16.14-3.94-25.97V50.05c0-8.93,1.36-17.14,4.09-24.63c2.73-7.48,7.63-13.51,14.7-18.09
			c7.07-4.58,17.28-6.87,30.61-6.87h62.74c15.76,0,27.83,2.07,36.22,6.2c8.38,4.13,14.14,9.94,17.28,17.42
			c3.13,7.49,4.7,16.14,4.7,25.97v42.9h-53.04c-18.19,0-31.98-0.45-41.37-1.34c-9.39-0.89-16.02-1.45-19.85-1.67v5.02
			c-0.21,8.94,4.64,13.41,14.55,13.41h9.4c16.16,0,31.11-0.39,44.86-1.18c13.74-0.78,23.94-1.51,30.61-2.18l18.18,31.84
			c0,2.24-1.72,4.36-5.15,6.37c-3.44,2.01-9.45,3.75-18.03,5.2c-8.59,1.45-20.76,2.18-36.52,2.18H268.24z M274.91,60.78h58.19v-4.69
			c0-4.47-0.35-7.59-1.06-9.38c-0.71-1.79-2.88-2.9-6.52-3.35c-3.64-0.45-9.8-0.67-18.49-0.67h-17.58c-9.7,0-14.55,4.47-14.55,13.4
			V60.78z"/>
		<path class="st0" d="M457.06,150.59c-13.54,0-23.14-0.78-28.79-2.35c-5.66-1.56-8.49-3.12-8.49-4.69l12.12-35.19
			c2.42,0.67,9.65,1.4,21.67,2.18c12.02,0.78,29.55,1.17,52.59,1.17h21.52c5.05,0,8.23-0.61,9.55-1.84c1.31-1.23,1.97-3.4,1.97-6.54
			c0-3.79-0.76-6.2-2.27-7.2c-1.52-1.01-4.6-1.51-9.24-1.51h-61.53c-14.75,0-26.17-3.07-34.25-9.22
			c-8.08-6.15-12.12-17.14-12.12-33.01v-6.7c0-8.27,1.01-15.81,3.03-22.62c2.02-6.81,6.37-12.29,13.03-16.42
			c6.67-4.13,16.77-6.2,30.31-6.2h89.72c12.12,0,20.71,0.78,25.76,2.35c5.05,1.56,7.58,3.13,7.58,4.69l-3.03,35.52
			c-3.23-0.67-11.36-1.39-24.4-2.18c-13.03-0.78-30.97-1.17-53.8-1.17h-21.52c-5.05,0-8.24,0.62-9.55,1.84
			c-1.32,1.23-1.97,3.3-1.97,6.2c0,2.91,0.65,4.97,1.97,6.2c1.31,1.23,4.5,1.84,9.55,1.84h62.74c15.76,0,27.38,3.8,34.86,11.39
			c7.47,7.59,11.21,18.21,11.21,31.83v6.37c0,8.04-0.91,15.47-2.73,22.28c-1.82,6.82-5.96,12.34-12.43,16.59
			c-6.47,4.25-16.77,6.37-30.91,6.37H457.06z"/>
		<g>
			<path class="st0" d="M177.69,214.44l-9.82-30.2h12.25l3.66,15.1l0.97,5.32h0.61l0.92-4.65l3.6-15.77h12.19l3.84,15.77l0.85,4.65
				h0.61l1.04-5.46l3.42-14.96h12.31l-0.97,4.11l-8.9,26.08h-13.41l-3.84-17.19l-0.61-3.17h-0.61l-0.79,3.51l-3.9,16.85H177.69z"/>
			<path class="st0" d="M237.74,214.44c-2.68,0-4.75-0.43-6.19-1.28c-1.44-0.85-2.43-2.03-2.96-3.54c-0.53-1.51-0.79-3.25-0.79-5.22
				v-10.18c0-1.8,0.27-3.45,0.82-4.96c0.55-1.51,1.53-2.72,2.96-3.64c1.42-0.92,3.47-1.38,6.16-1.38h12.62
				c3.17,0,5.6,0.42,7.28,1.25c1.69,0.83,2.84,2,3.48,3.51c0.63,1.5,0.94,3.25,0.94,5.22v8.62h-10.67c-3.66,0-6.43-0.09-8.32-0.27
				c-1.89-0.18-3.22-0.29-3.99-0.33v1.01c-0.04,1.8,0.94,2.7,2.93,2.7h1.89c3.25,0,6.26-0.08,9.02-0.24
				c2.76-0.16,4.82-0.3,6.16-0.44l3.66,6.4c0,0.45-0.35,0.88-1.04,1.28c-0.69,0.41-1.9,0.75-3.63,1.05
				c-1.73,0.29-4.18,0.44-7.35,0.44H237.74z M239.08,196.37h11.71v-0.95c0-0.9-0.07-1.53-0.21-1.89c-0.14-0.36-0.58-0.58-1.31-0.68
				c-0.73-0.09-1.97-0.13-3.72-0.13h-3.54c-1.95,0-2.93,0.9-2.93,2.69V196.37z"/>
			<path class="st0" d="M268.89,181.95c-0.85,0.27-1.35,0.15-1.49-0.37c-0.14-0.52-0.07-1.05,0.21-1.59
				c0.33-0.54,0.75-1.57,1.28-3.1c0.53-1.53,0.89-3.04,1.1-4.51c-1.18-0.31-2.17-0.83-2.99-1.55s-1.22-2.11-1.22-4.18
				c0-1.98,0.54-3.42,1.62-4.31c1.07-0.9,2.59-1.35,4.54-1.35c2.19,0,3.89,0.48,5.09,1.45c1.2,0.97,1.8,2.62,1.8,4.96
				c0,1.8-0.34,3.52-1,5.16c-0.67,1.64-1.53,3.11-2.56,4.42c-1.04,1.3-2.13,2.39-3.26,3.27
				C270.86,181.1,269.82,181.68,268.89,181.95z"/>
			<path class="st0" d="M287.36,214.44v-30.2h8.66l2.32,1.35c1.87-1.35,4.35-2.02,7.44-2.02c2.03,0,3.82,0.24,5.36,0.71
				c1.54,0.47,2.79,0.98,3.75,1.52c0.95,0.54,1.55,0.92,1.8,1.15l-3.05,8.76c-0.41-0.31-1.17-0.74-2.29-1.28
				c-1.12-0.54-2.43-1.05-3.93-1.52c-1.5-0.47-3.09-0.71-4.75-0.71h-0.67c-1.14,0-2.01,0.21-2.62,0.64
				c-0.61,0.43-0.91,1.36-0.91,2.8v18.8H287.36z"/>
			<path class="st0" d="M330.28,214.44c-2.68,0-4.75-0.43-6.19-1.28c-1.44-0.85-2.43-2.03-2.96-3.54c-0.53-1.51-0.79-3.25-0.79-5.22
				v-10.18c0-1.8,0.27-3.45,0.82-4.96c0.55-1.51,1.53-2.72,2.96-3.64c1.42-0.92,3.47-1.38,6.16-1.38h12.62
				c3.17,0,5.6,0.42,7.28,1.25c1.69,0.83,2.84,2,3.48,3.51c0.63,1.5,0.94,3.25,0.94,5.22v8.62h-10.67c-3.66,0-6.43-0.09-8.32-0.27
				c-1.89-0.18-3.22-0.29-3.99-0.33v1.01c-0.04,1.8,0.94,2.7,2.93,2.7h1.89c3.25,0,6.26-0.08,9.02-0.24
				c2.76-0.16,4.82-0.3,6.16-0.44l3.66,6.4c0,0.45-0.35,0.88-1.04,1.28c-0.69,0.41-1.9,0.75-3.63,1.05
				c-1.73,0.29-4.18,0.44-7.35,0.44H330.28z M331.62,196.37h11.71v-0.95c0-0.9-0.07-1.53-0.21-1.89c-0.14-0.36-0.58-0.58-1.31-0.68
				c-0.73-0.09-1.97-0.13-3.72-0.13h-3.54c-1.95,0-2.93,0.9-2.93,2.69V196.37z"/>
			<path class="st0" d="M393.62,226.3c-4.19,0-7.6-0.08-10.24-0.24c-2.64-0.16-4.67-0.37-6.1-0.64c-1.42-0.27-2.4-0.57-2.93-0.91
				c-0.53-0.34-0.79-0.67-0.79-0.98l3.05-7.08c0.45,0.13,1.44,0.39,2.99,0.77c1.54,0.38,3.8,0.57,6.77,0.57h9.21
				c1.06,0,1.82-0.2,2.28-0.61c0.47-0.4,0.68-1.1,0.64-2.09v-2.77c-1.26,0.41-3.02,0.73-5.27,0.98s-4.89,0.37-7.89,0.37h-1.77
				c-2.68,0-4.68-0.42-6-1.25c-1.32-0.83-2.19-1.99-2.62-3.47c-0.43-1.48-0.64-3.26-0.64-5.32v-9.44c0-1.08,0.11-2.2,0.34-3.37
				c0.22-1.17,0.65-2.24,1.28-3.23c0.63-0.99,1.56-1.8,2.8-2.43c1.24-0.63,2.85-0.95,4.85-0.95h1.83c2.84,0,5.16,0.05,6.95,0.14
				c1.79,0.09,3.22,0.2,4.3,0.34c1.08,0.13,1.98,0.27,2.71,0.4l1.59-0.88h8.66v32.08c0,2.97-0.85,5.37-2.56,7.21
				c-1.71,1.84-4.55,2.77-8.53,2.77H393.62z M388.49,205.2h8.11c0.94,0,1.48-0.09,1.65-0.27c0.16-0.18,0.24-0.76,0.24-1.75v-9.97
				c-0.89-0.09-1.76-0.17-2.59-0.24c-0.83-0.07-1.77-0.12-2.81-0.17c-1.04-0.04-2.35-0.06-3.93-0.06h-0.67
				c-1.95,0-2.93,0.9-2.93,2.69v7.08C385.53,204.3,386.5,205.2,388.49,205.2z"/>
			<path class="st0" d="M426.23,214.44c-2.68,0-4.75-0.43-6.19-1.28c-1.44-0.85-2.43-2.03-2.96-3.54c-0.53-1.51-0.79-3.25-0.79-5.22
				v-10.18c0-1.8,0.27-3.45,0.82-4.96c0.55-1.51,1.53-2.72,2.96-3.64c1.42-0.92,3.47-1.38,6.16-1.38h12.62
				c3.17,0,5.6,0.42,7.28,1.25c1.69,0.83,2.84,2,3.48,3.51c0.63,1.5,0.94,3.25,0.94,5.22v8.62h-10.67c-3.66,0-6.43-0.09-8.32-0.27
				c-1.89-0.18-3.22-0.29-3.99-0.33v1.01c-0.04,1.8,0.94,2.7,2.93,2.7h1.89c3.25,0,6.26-0.08,9.02-0.24
				c2.76-0.16,4.82-0.3,6.16-0.44l3.66,6.4c0,0.45-0.35,0.88-1.04,1.28c-0.69,0.41-1.9,0.75-3.63,1.05
				c-1.73,0.29-4.18,0.44-7.35,0.44H426.23z M427.57,196.37h11.71v-0.95c0-0.9-0.07-1.53-0.21-1.89s-0.58-0.58-1.31-0.68
				c-0.73-0.09-1.97-0.13-3.72-0.13h-3.54c-1.95,0-2.93,0.9-2.93,2.69V196.37z"/>
			<path class="st0" d="M457.32,214.44v-30.2h8.84l2.44,1.35c1.71-0.36,3.77-0.68,6.19-0.95c2.42-0.27,4.68-0.41,6.8-0.41h3.05
				c2.03,0,3.6,0.32,4.69,0.95c1.1,0.63,1.88,1.42,2.35,2.36c0.47,0.94,0.75,1.9,0.85,2.86c0.1,0.96,0.15,1.79,0.15,2.46v21.57
				h-11.16v-19.01c0-1.8-0.97-2.69-2.93-2.69h-8.17c-0.77,0-1.27,0.08-1.49,0.24c-0.22,0.16-0.34,0.57-0.34,1.25v20.22H457.32z"/>
			<path class="st0" d="M505.84,181.34c-4.11,0-6.16-1.93-6.16-5.79c0-2.16,0.52-3.65,1.55-4.49c1.04-0.83,2.57-1.24,4.6-1.24
				c2.15,0,3.73,0.42,4.73,1.24c0.99,0.83,1.49,2.33,1.49,4.49C512.06,179.41,509.99,181.34,505.84,181.34z M500.23,214.44v-30.2
				h11.1v30.2H500.23z"/>
			<path class="st0" d="M528.34,214.44c-2.68,0-4.68-0.44-6-1.31c-1.32-0.88-2.2-2.08-2.62-3.61c-0.43-1.53-0.64-3.21-0.64-5.05
				v-20.22h11.22v19.01c0,1.8,0.97,2.7,2.93,2.7h6.95c0.89,0,1.42-0.09,1.58-0.27c0.16-0.18,0.24-0.76,0.24-1.75v-19.68h11.28v30.2
				h-8.84l-2.32-1.35c-1.63,0.36-3.49,0.67-5.61,0.94c-2.12,0.27-4.25,0.41-6.4,0.41H528.34z"/>
			<path class="st0" d="M567.48,214.44c-2.72,0-4.65-0.16-5.79-0.47c-1.14-0.31-1.71-0.63-1.71-0.95l2.44-7.08
				c0.49,0.13,1.94,0.28,4.36,0.44c2.42,0.16,5.94,0.24,10.58,0.24h4.33c1.02,0,1.66-0.12,1.92-0.37c0.26-0.25,0.39-0.69,0.39-1.32
				c0-0.76-0.15-1.25-0.46-1.45c-0.31-0.2-0.93-0.3-1.86-0.3h-12.37c-2.97,0-5.26-0.62-6.89-1.85c-1.63-1.24-2.44-3.45-2.44-6.64
				v-1.35c0-1.66,0.2-3.18,0.61-4.55c0.41-1.37,1.28-2.47,2.62-3.3c1.34-0.83,3.37-1.25,6.1-1.25h18.04c2.44,0,4.16,0.16,5.18,0.47
				s1.53,0.63,1.53,0.94l-0.61,7.14c-0.65-0.13-2.29-0.28-4.91-0.44c-2.62-0.16-6.23-0.24-10.82-0.24h-4.33
				c-1.02,0-1.66,0.12-1.92,0.37c-0.27,0.24-0.4,0.66-0.4,1.24c0,0.59,0.13,1,0.4,1.25c0.26,0.24,0.9,0.37,1.92,0.37h12.62
				c3.17,0,5.51,0.76,7.01,2.29c1.5,1.53,2.26,3.66,2.26,6.4v1.28c0,1.62-0.18,3.11-0.55,4.48c-0.37,1.37-1.2,2.48-2.5,3.33
				c-1.3,0.86-3.37,1.28-6.22,1.28H567.48z"/>
		</g>
	</g>
</g>
</svg>
