<svg width="4390" height="1531" viewBox="0 0 4390 1531" fill="none" xmlns="http://www.w3.org/2000/svg">
<path d="M362.06 1439.3C280.112 1439.3 205.614 1431.1 138.566 1414.71C71.5179 1399.81 25.3293 1384.92 0 1370.02L89.3974 1095.12C134.096 1114.49 181.775 1129.39 232.433 1139.82C284.582 1150.25 333.75 1155.46 379.939 1155.46H404.523C534.15 1155.46 628.017 1104.06 686.125 1001.25H549.794L111.747 0H560.969L753.173 594.493L786.697 730.824H809.047L842.571 594.493L1037.01 0H1479.53L1443.77 136.331C1415.46 194.439 1382.68 261.487 1345.43 337.475C1309.67 411.973 1272.42 489.451 1233.68 569.909C1194.95 650.366 1156.95 727.844 1119.7 802.342C1083.94 876.84 1051.91 943.143 1023.6 1001.25C950.593 1150.25 866.41 1260.5 771.053 1332.02C675.696 1403.54 559.479 1439.3 422.403 1439.3H362.06Z" fill="white"/>
<path d="M1977.55 1001.25C1879.21 1001.25 1803.23 987.097 1749.59 958.787C1697.44 930.478 1661.68 891.739 1642.31 842.571C1622.94 791.912 1613.26 733.804 1613.26 668.246V330.771C1613.26 271.172 1622.94 216.789 1642.31 167.62C1663.17 116.962 1699.67 76.7328 1751.82 46.9336C1803.97 15.6445 1879.21 0 1977.55 0H2440.18C2556.4 0 2645.05 14.1546 2706.14 42.4638C2768.72 69.283 2811.18 108.022 2833.53 158.68C2857.37 207.849 2869.29 265.212 2869.29 330.771V616.842H2478.18C2344.08 616.842 2242.02 613.862 2171.99 607.903C2103.45 601.943 2055.03 598.218 2026.72 596.728V630.252C2025.23 689.85 2060.99 719.649 2134 719.649H2203.28C2322.48 719.649 2432.73 717.414 2534.05 712.945C2635.37 706.985 2710.61 701.77 2759.78 697.3L2893.88 909.619C2893.88 924.518 2881.21 938.673 2855.88 952.083C2830.55 965.492 2785.85 977.412 2721.79 987.842C2659.21 996.781 2569.81 1001.25 2453.59 1001.25H1977.55ZM2026.72 402.288H2455.83V370.999C2455.83 341.2 2452.85 320.341 2446.89 308.421C2442.42 296.501 2426.77 289.052 2399.95 286.072C2373.14 283.092 2327.69 281.602 2263.62 281.602H2134C2062.48 281.602 2026.72 311.401 2026.72 370.999V402.288Z" fill="white"/>
<path d="M3370.11 1001.25C3270.28 1001.25 3199.51 996.036 3157.79 985.607C3116.07 975.177 3095.21 964.747 3095.21 954.318L3184.61 719.649C3202.49 724.119 3255.38 729.334 3343.29 735.294C3432.69 739.764 3562.31 741.999 3732.17 741.999H3890.85C3928.1 741.999 3951.19 738.274 3960.13 730.824C3970.56 721.884 3975.78 706.985 3975.78 686.125C3975.78 660.796 3969.82 645.151 3957.9 639.192C3947.47 631.742 3925.12 628.017 3890.85 628.017H3437.16C3328.39 628.017 3244.21 607.903 3184.61 567.674C3125.01 525.955 3095.21 452.202 3095.21 346.415V301.716C3095.21 246.588 3102.66 196.674 3117.56 151.976C3132.46 105.787 3164.49 69.283 3213.66 42.4638C3262.83 14.1546 3337.33 0 3437.16 0H4098.7C4188.1 0 4251.42 5.21485 4288.67 15.6445C4325.92 26.0742 4344.54 36.5039 4344.54 46.9336L4322.19 283.837C4298.35 279.367 4238.01 274.897 4141.16 270.427C4045.8 264.467 3913.94 261.487 3745.58 261.487H3586.9C3549.65 261.487 3525.81 265.957 3515.38 274.897C3506.44 282.347 3501.97 295.756 3501.97 315.126C3501.97 334.495 3506.44 348.65 3515.38 357.59C3525.81 365.04 3549.65 368.764 3586.9 368.764H4049.53C4165.75 368.764 4251.42 394.094 4306.55 444.752C4361.68 495.411 4389.24 566.184 4389.24 657.071V699.535C4389.24 753.173 4382.53 803.087 4369.12 849.276C4355.72 893.974 4325.17 930.478 4277.49 958.787C4229.81 987.097 4153.83 1001.25 4049.53 1001.25H3370.11Z" fill="white"/>
<path d="M1302.16 1444.25L1223.3 1224.79H1291.88L1331.55 1349.22L1344.29 1392.82H1349.19L1356.54 1354.12L1390.34 1224.79H1468.71L1504.47 1354.12L1511.33 1392.82H1516.23L1529.46 1348.24L1566.69 1224.79H1635.27L1627.43 1254.68L1556.89 1444.25H1478.51L1437.85 1309.54L1432.96 1286.52H1428.06L1422.18 1309.54L1380.54 1444.25H1302.16Z" fill="white"/>
<path d="M1729.48 1444.25C1713.15 1444.25 1700.58 1442.13 1691.76 1437.88C1682.94 1433.64 1676.58 1428.25 1672.66 1421.72C1669.06 1415.19 1666.78 1408.33 1665.8 1401.14C1665.15 1393.96 1664.82 1387.43 1664.82 1381.55V1287.5C1664.82 1282.6 1665.15 1276.72 1665.8 1269.86C1666.78 1262.68 1669.06 1255.66 1672.66 1248.8C1676.58 1241.94 1682.94 1236.22 1691.76 1231.65C1700.91 1227.08 1713.48 1224.79 1729.48 1224.79H1834.8C1856.35 1224.79 1873.17 1226.92 1885.26 1231.16C1897.66 1235.08 1906.32 1241.61 1911.22 1250.76C1916.44 1259.9 1919.06 1272.15 1919.06 1287.5V1360H1833.33C1803.94 1360 1779.94 1359.34 1761.32 1358.04C1743.03 1356.73 1730.79 1355.91 1724.58 1355.59V1382.53C1724.26 1395.59 1732.09 1402.12 1748.09 1402.12H1773.08C1790.71 1402.12 1807.86 1401.96 1824.51 1401.63C1841.49 1400.98 1857.01 1400.33 1871.05 1399.67C1885.09 1398.69 1896.36 1397.88 1904.85 1397.22L1924.44 1429.07C1924.44 1439.19 1892.28 1444.25 1827.94 1444.25H1729.48ZM1724.58 1317.87H1859.29V1286.52C1859.29 1279.99 1858.48 1275.41 1856.84 1272.8C1855.54 1270.19 1851.29 1268.56 1844.11 1267.9C1836.92 1267.25 1824.68 1266.92 1807.37 1266.92H1748.09C1732.42 1266.92 1724.58 1273.45 1724.58 1286.52V1317.87Z" fill="white"/>
<path d="M1947.25 1198.34C1940.39 1200.3 1936.3 1199.49 1935 1195.89C1934.02 1191.97 1934.67 1188.06 1936.96 1184.14C1938.92 1181.52 1941.53 1177.28 1944.8 1171.4C1948.39 1165.52 1951.82 1158.99 1955.08 1151.81C1958.35 1144.29 1960.47 1136.78 1961.45 1129.27C1952.96 1127.97 1946.76 1124.86 1942.84 1119.97C1938.92 1115.07 1936.96 1107.56 1936.96 1097.43C1936.96 1086 1939.57 1078 1944.8 1073.43C1950.35 1068.53 1959.33 1066.08 1971.74 1066.08C1985.13 1066.08 1995.09 1069.02 2001.62 1074.9C2008.48 1080.45 2011.91 1089.76 2011.91 1102.82C2011.91 1112.29 2009.78 1122.25 2005.54 1132.7C2001.62 1143.15 1996.39 1153.11 1989.86 1162.58C1983.33 1171.73 1976.31 1179.56 1968.8 1186.1C1961.29 1192.3 1954.1 1196.38 1947.25 1198.34Z" fill="white"/>
<path d="M2080.64 1444.25V1224.79H2120.81L2139.43 1234.59C2147.92 1230.02 2157.06 1226.43 2166.86 1223.82C2176.66 1221.2 2189.07 1219.9 2204.09 1219.9C2227.93 1219.9 2247.2 1222.51 2261.89 1227.73C2276.91 1232.96 2286.87 1236.88 2291.77 1239.49L2274.63 1282.11C2270.71 1280.15 2264.18 1277.7 2255.03 1274.76C2246.22 1271.49 2235.77 1268.56 2223.68 1265.94C2211.6 1263.33 2198.37 1262.02 2184 1262.02H2178.62C2162.94 1262.02 2152.65 1265.13 2147.75 1271.33C2143.18 1277.54 2140.73 1287.82 2140.41 1302.19V1444.25H2080.64Z" fill="white"/>
<path d="M2385.81 1444.25C2369.48 1444.25 2356.91 1442.13 2348.09 1437.88C2339.28 1433.64 2332.91 1428.25 2328.99 1421.72C2325.4 1415.19 2323.11 1408.33 2322.13 1401.14C2321.48 1393.96 2321.15 1387.43 2321.15 1381.55V1287.5C2321.15 1282.6 2321.48 1276.72 2322.13 1269.86C2323.11 1262.68 2325.4 1255.66 2328.99 1248.8C2332.91 1241.94 2339.28 1236.22 2348.09 1231.65C2357.24 1227.08 2369.81 1224.79 2385.81 1224.79H2491.13C2512.69 1224.79 2529.51 1226.92 2541.59 1231.16C2554 1235.08 2562.65 1241.61 2567.55 1250.76C2572.78 1259.9 2575.39 1272.15 2575.39 1287.5V1360H2489.66C2460.27 1360 2436.27 1359.34 2417.65 1358.04C2399.37 1356.73 2387.12 1355.91 2380.92 1355.59V1382.53C2380.59 1395.59 2388.43 1402.12 2404.43 1402.12H2429.41C2447.05 1402.12 2464.19 1401.96 2480.85 1401.63C2497.83 1400.98 2513.34 1400.33 2527.38 1399.67C2541.43 1398.69 2552.69 1397.88 2561.18 1397.22L2580.78 1429.07C2580.78 1439.19 2548.61 1444.25 2484.28 1444.25H2385.81ZM2380.92 1317.87H2515.63V1286.52C2515.63 1279.99 2514.81 1275.41 2513.18 1272.8C2511.87 1270.19 2507.63 1268.56 2500.44 1267.9C2493.26 1267.25 2481.01 1266.92 2463.7 1266.92H2404.43C2388.75 1266.92 2380.92 1273.45 2380.92 1286.52V1317.87Z" fill="white"/>
<path d="M2898.62 1530.47C2862.7 1530.47 2833.47 1530.14 2810.93 1529.49C2788.4 1528.83 2771.09 1527.85 2759.01 1526.55C2746.93 1525.24 2738.6 1523.61 2734.03 1521.65C2729.78 1519.69 2727.66 1517.57 2727.66 1515.28L2742.35 1478.54C2747.58 1480.17 2756.72 1482.13 2769.79 1484.42C2783.18 1487.03 2800.16 1488.34 2820.73 1488.34H2904.5C2916.58 1488.34 2925.07 1486.54 2929.97 1482.95C2935.19 1479.36 2937.81 1472.99 2937.81 1463.85V1434.45C2923.76 1437.07 2907.11 1439.35 2887.84 1441.31C2868.9 1443.27 2847.02 1444.25 2822.2 1444.25H2797.71C2781.38 1444.25 2768.81 1442.13 2759.99 1437.88C2751.17 1433.64 2744.8 1428.25 2740.88 1421.72C2737.29 1415.19 2735.01 1408.33 2734.03 1401.14C2733.37 1393.96 2733.05 1387.43 2733.05 1381.55V1287.5C2733.05 1282.6 2733.37 1276.72 2734.03 1269.86C2735.01 1262.68 2737.29 1255.66 2740.88 1248.8C2744.8 1241.94 2751.17 1236.22 2759.99 1231.65C2769.13 1227.08 2781.71 1224.79 2797.71 1224.79H2822.69C2856.98 1224.79 2883.6 1225.45 2902.54 1226.75C2921.81 1228.06 2935.85 1229.53 2944.67 1231.16L2957.4 1224.79H2997.57V1467.76C2997.57 1473.64 2996.59 1480.17 2994.63 1487.36C2993 1494.54 2989.57 1501.4 2984.34 1507.93C2979.12 1514.46 2971.61 1519.85 2961.81 1524.1C2952.01 1528.34 2939.11 1530.47 2923.11 1530.47H2898.62ZM2816.32 1402.12H2922.62C2930.13 1402.12 2934.54 1401.47 2935.85 1400.16C2937.15 1398.86 2937.81 1394.61 2937.81 1387.43V1270.35C2926.7 1269.7 2912.66 1269.05 2895.68 1268.39C2878.7 1267.41 2860.57 1266.92 2841.31 1266.92H2816.32C2800.65 1266.92 2792.81 1273.45 2792.81 1286.52V1382.53C2792.48 1395.59 2800.32 1402.12 2816.32 1402.12Z" fill="white"/>
<path d="M3116.3 1444.25C3099.97 1444.25 3087.39 1442.13 3078.58 1437.88C3069.76 1433.64 3063.39 1428.25 3059.47 1421.72C3055.88 1415.19 3053.59 1408.33 3052.61 1401.14C3051.96 1393.96 3051.63 1387.43 3051.63 1381.55V1287.5C3051.63 1282.6 3051.96 1276.72 3052.61 1269.86C3053.59 1262.68 3055.88 1255.66 3059.47 1248.8C3063.39 1241.94 3069.76 1236.22 3078.58 1231.65C3087.72 1227.08 3100.29 1224.79 3116.3 1224.79H3221.61C3243.17 1224.79 3259.99 1226.92 3272.07 1231.16C3284.48 1235.08 3293.13 1241.61 3298.03 1250.76C3303.26 1259.9 3305.87 1272.15 3305.87 1287.5V1360H3220.15C3190.75 1360 3166.75 1359.34 3148.14 1358.04C3129.85 1356.73 3117.6 1355.91 3111.4 1355.59V1382.53C3111.07 1395.59 3118.91 1402.12 3134.91 1402.12H3159.89C3177.53 1402.12 3194.67 1401.96 3211.33 1401.63C3228.31 1400.98 3243.82 1400.33 3257.86 1399.67C3271.91 1398.69 3283.17 1397.88 3291.66 1397.22L3311.26 1429.07C3311.26 1439.19 3279.09 1444.25 3214.76 1444.25H3116.3ZM3111.4 1317.87H3246.11V1286.52C3246.11 1279.99 3245.29 1275.41 3243.66 1272.8C3242.35 1270.19 3238.11 1268.56 3230.92 1267.9C3223.74 1267.25 3211.49 1266.92 3194.18 1266.92H3134.91C3119.23 1266.92 3111.4 1273.45 3111.4 1286.52V1317.87Z" fill="white"/>
<path d="M3360.3 1444.25V1224.79H3400.47L3420.06 1234.59C3433.78 1231.98 3450.27 1229.69 3469.54 1227.73C3488.81 1225.77 3510.85 1224.79 3535.67 1224.79H3560.16C3576.49 1224.79 3589.07 1227.08 3597.88 1231.65C3606.7 1236.22 3612.91 1241.94 3616.5 1248.8C3620.42 1255.66 3622.7 1262.68 3623.36 1269.86C3624.34 1276.72 3624.83 1282.6 3624.83 1287.5V1444.25H3565.06V1286.52C3565.06 1273.45 3557.23 1266.92 3541.55 1266.92H3434.76C3428.56 1266.92 3424.47 1267.58 3422.51 1268.88C3420.88 1269.86 3420.06 1272.8 3420.06 1277.7V1444.25H3360.3Z" fill="white"/>
<path d="M3716.07 1193.93C3703.99 1193.93 3695.17 1191.48 3689.62 1186.59C3684.07 1181.69 3681.29 1173.52 3681.29 1162.09C3681.29 1150.34 3683.91 1142.17 3689.13 1137.6C3694.68 1132.7 3703.66 1130.25 3716.07 1130.25C3728.48 1130.25 3737.46 1132.7 3743.02 1137.6C3748.57 1142.17 3751.34 1150.34 3751.34 1162.09C3751.34 1173.2 3748.57 1181.36 3743.02 1186.59C3737.46 1191.48 3728.48 1193.93 3716.07 1193.93ZM3686.19 1444.25V1224.79H3745.95V1444.25H3686.19Z" fill="white"/>
<path d="M3874.64 1444.25C3858.64 1444.25 3846.06 1442.13 3836.92 1437.88C3828.1 1433.64 3821.73 1428.25 3817.81 1421.72C3814.22 1415.19 3811.94 1408.33 3810.96 1401.14C3810.3 1393.96 3809.98 1387.43 3809.98 1381.55V1224.79H3869.74V1382.53C3869.41 1389.71 3871.7 1394.78 3876.6 1397.71C3881.82 1400.65 3887.37 1402.12 3893.25 1402.12H3990.24C3997.43 1402.12 4001.67 1401.47 4002.98 1400.16C4004.29 1398.86 4004.94 1394.61 4004.94 1387.43V1224.79H4064.7V1444.25H4024.53L4005.92 1434.45C3992.86 1437.07 3977.34 1439.35 3959.38 1441.31C3941.75 1443.27 3921.83 1444.25 3899.62 1444.25H3874.64Z" fill="white"/>
<path d="M4178.67 1444.25C4156.79 1444.25 4141.28 1443.11 4132.13 1440.82C4122.99 1438.54 4118.42 1436.25 4118.42 1433.96L4133.11 1397.22C4142.58 1398.2 4159.89 1399.35 4185.04 1400.65C4210.51 1401.63 4241.86 1402.12 4279.09 1402.12H4303.58C4311.75 1402.12 4316.81 1400 4318.77 1395.76C4321.05 1391.18 4322.2 1385.14 4322.2 1377.63C4322.2 1370.12 4320.89 1364.08 4318.28 1359.51C4315.99 1354.93 4311.09 1352.65 4303.58 1352.65H4183.08C4160.22 1352.65 4143.72 1348.4 4133.6 1339.91C4123.48 1331.09 4118.42 1318.03 4118.42 1300.72V1281.13C4118.42 1276.56 4118.91 1271.17 4119.88 1264.96C4120.86 1258.76 4123.31 1252.55 4127.23 1246.35C4131.15 1240.14 4137.52 1235.08 4146.34 1231.16C4155.15 1226.92 4167.4 1224.79 4183.08 1224.79H4318.28C4337.87 1224.79 4351.75 1225.94 4359.92 1228.22C4368.08 1230.51 4372.16 1232.8 4372.16 1235.08L4367.26 1271.82C4357.79 1270.84 4340.32 1269.86 4314.85 1268.88C4289.38 1267.58 4258.19 1266.92 4221.29 1266.92H4196.79C4188.63 1266.92 4183.4 1269.21 4181.12 1273.78C4179.16 1278.03 4178.18 1283.09 4178.18 1288.97C4178.18 1295.17 4179.16 1300.4 4181.12 1304.64C4183.4 1308.56 4188.63 1310.52 4196.79 1310.52H4317.3C4339.5 1310.52 4355.83 1315.09 4366.28 1324.24C4376.73 1333.38 4381.96 1344.97 4381.96 1359.02V1387.92C4381.96 1393.8 4381.47 1400 4380.49 1406.53C4379.84 1413.06 4377.55 1419.27 4373.63 1425.15C4369.71 1430.7 4363.34 1435.27 4354.53 1438.86C4345.71 1442.46 4333.3 1444.25 4317.3 1444.25H4178.67Z" fill="white"/>
</svg>
